<?xml version="1.0" encoding="utf-8"?>
<svg xmlns="http://www.w3.org/2000/svg" viewBox="-0.012 487.985 22.03 12.028" xmlns:bx="https://boxy-svg.com" width="22.03px" height="12.028px"><defs><bx:export><bx:file format="svg"/></bx:export></defs><path fill="currentColor" d="M 6 500 C 4.333 500 2.917 499.417 1.75 498.25 C 0.583 497.083 0 495.667 0 494 C 0 492.333 0.583 490.917 1.75 489.75 C 2.917 488.583 4.333 488 6 488 L 16 488 C 17.667 488 19.083 488.583 20.25 489.75 C 21.417 490.917 22 492.333 22 494 C 22 495.667 21.417 497.083 20.25 498.25 C 19.083 499.417 17.667 500 16 500 L 6 500 Z M 6 497 C 6.833 497 7.542 496.708 8.125 496.125 C 8.708 495.542 9 494.833 9 494 C 9 493.167 8.708 492.458 8.125 491.875 C 7.542 491.292 6.833 491 6 491 C 5.167 491 4.458 491.292 3.875 491.875 C 3.292 492.458 3 493.167 3 494 C 3 494.833 3.292 495.542 3.875 496.125 C 4.458 496.708 5.167 497 6 497"/></svg>